<?xml version="1.0" encoding="UTF-8" standalone="no"?>
<!DOCTYPE svg PUBLIC "-//W3C//DTD SVG 1.1//EN"
 "http://www.w3.org/Graphics/SVG/1.1/DTD/svg11.dtd">
<!-- Generated by graphviz version 2.43.0 (0)
 -->
<!-- Title: %3 Pages: 1 -->
<svg width="1395pt" height="165pt"
 viewBox="0.00 0.00 1395.00 164.74" xmlns="http://www.w3.org/2000/svg" xmlns:xlink="http://www.w3.org/1999/xlink">
<g id="graph0" class="graph" transform="scale(1 1) rotate(0) translate(36 128.74)">
<title>%3</title>
<polygon fill="dimgray" stroke="transparent" points="-36,36 -36,-128.74 1359,-128.74 1359,36 -36,36"/>
<text text-anchor="middle" x="661.5" y="-77.54" font-family="Helvetica,sans-Serif" font-size="14.00">Sweep&#39;s Plan &amp; Progress</text>
<!-- start -->
<g id="node1" class="node">
<title>start</title>
</g>
<!-- e0aca9e3&#45;24d5&#45;4be8&#45;8854&#45;c4ba3583edd9 -->
<g id="node3" class="node">
<title>e0aca9e3&#45;24d5&#45;4be8&#45;8854&#45;c4ba3583edd9</title>
<ellipse fill="#0ee832" stroke="black" cx="367.5" cy="-26.87" rx="315.24" ry="26.74"/>
<text text-anchor="middle" x="367.5" y="-30.67" font-family="Helvetica,sans-Serif" font-size="14.00">✓ Modify</text>
<text text-anchor="middle" x="367.5" y="-15.67" font-family="Helvetica,sans-Serif" font-size="14.00">NineChronicles.Headless.Executable/appsettings&#45;schema.json</text>
</g>
<!-- start&#45;&gt;e0aca9e3&#45;24d5&#45;4be8&#45;8854&#45;c4ba3583edd9 -->
<g id="edge2" class="edge">
<title>start&#45;&gt;e0aca9e3&#45;24d5&#45;4be8&#45;8854&#45;c4ba3583edd9</title>
<path fill="none" stroke="black" d="M1.1,-26.87C4.21,-26.87 19.32,-26.87 41.78,-26.87"/>
<polygon fill="black" stroke="black" points="41.84,-30.37 51.84,-26.87 41.84,-23.37 41.84,-30.37"/>
<text text-anchor="middle" x="26.57" y="-33.67" font-family="Helvetica,sans-Serif" font-size="14.00">Start</text>
</g>
<!-- end -->
<g id="node2" class="node">
<title>end</title>
</g>
<!-- 65e7fa4b&#45;9ef9&#45;4c07&#45;a57d&#45;8857b4b199ea -->
<g id="node4" class="node">
<title>65e7fa4b&#45;9ef9&#45;4c07&#45;a57d&#45;8857b4b199ea</title>
<ellipse fill="#0ee832" stroke="black" cx="991.5" cy="-26.87" rx="272.89" ry="26.74"/>
<text text-anchor="middle" x="991.5" y="-30.67" font-family="Helvetica,sans-Serif" font-size="14.00">✓ Modify</text>
<text text-anchor="middle" x="991.5" y="-15.67" font-family="Helvetica,sans-Serif" font-size="14.00">NineChronicles.Headless.Executable/Configuration.cs</text>
</g>
<!-- e0aca9e3&#45;24d5&#45;4be8&#45;8854&#45;c4ba3583edd9&#45;&gt;65e7fa4b&#45;9ef9&#45;4c07&#45;a57d&#45;8857b4b199ea -->
<g id="edge1" class="edge">
<title>e0aca9e3&#45;24d5&#45;4be8&#45;8854&#45;c4ba3583edd9&#45;&gt;65e7fa4b&#45;9ef9&#45;4c07&#45;a57d&#45;8857b4b199ea</title>
<path fill="none" stroke="black" d="M683.16,-26.87C691.51,-26.87 699.85,-26.87 708.2,-26.87"/>
<polygon fill="black" stroke="black" points="708.39,-30.37 718.39,-26.87 708.39,-23.37 708.39,-30.37"/>
</g>
<!-- 65e7fa4b&#45;9ef9&#45;4c07&#45;a57d&#45;8857b4b199ea&#45;&gt;end -->
<g id="edge3" class="edge">
<title>65e7fa4b&#45;9ef9&#45;4c07&#45;a57d&#45;8857b4b199ea&#45;&gt;end</title>
<path fill="none" stroke="black" d="M1264.47,-26.87C1284.99,-26.87 1301.63,-26.87 1311.74,-26.87"/>
<polygon fill="black" stroke="black" points="1311.89,-30.37 1321.89,-26.87 1311.89,-23.37 1311.89,-30.37"/>
<text text-anchor="middle" x="1293.22" y="-33.67" font-family="Helvetica,sans-Serif" font-size="14.00">Finish</text>
</g>
</g>
</svg>
